# File created by Blade
# Date/Time:  Wed Jan 21 17:41:14 2015
# Frame Rate: 120.000 fps
#------------------------------------------------------
:FULLY-SPECIFIED
:DEGREES
944
root 17.248904 6.924424 -23.045918 -177.118743 89.685269 -266.711434
Spine -10.133408 0.490614 -0.730018
Head 29.162750 -0.884601 0.347242
LeftShoulder -19.840324 -8.349114 16.541095
LeftArm 28.826601 37.884127 -27.015940
LeftForeArm 23.226297 -0.000000 108.344809
LeftHand -2.861762 -0.000000 60.921336
LeftHandThumb1 -26.253704 0.000000 33.147579
RightShoulder -19.994234 -26.385353 -8.513025
RightArm 38.972332 -4.814717 33.104082
RightForeArm -42.664900 0.000000 108.839023
RightHand -7.344602 -0.000000 -55.396507
RightHandThumb1 -24.326973 -0.000000 -32.862282
LeftUpLeg -3.401181 4.362607 -3.261244
LeftLeg 3.097952 -0.000000 -0.000000
LeftFoot -20.071075 27.642260 -15.219904
LeftToeBase -32.618368 -0.000000 0.000000
RightUpLeg -4.054320 6.429372 4.196724
RightLeg 6.954812 -0.000000 -0.000000
RightFoot -26.098690 -17.585655 19.301908
RightToeBase -32.778975 -0.000000 0.000000
945
root 17.242827 6.969000 -23.044670 -172.396079 89.701041 -261.985636
Spine -10.213563 0.520832 -0.754963
Head 29.212761 -0.890187 0.409692
LeftShoulder -19.683142 -8.495086 16.639857
LeftArm 29.041325 38.063433 -26.827274
LeftForeArm 23.095800 -0.000000 108.056986
LeftHand -2.804448 -0.000000 61.171107
LeftHandThumb1 -26.253704 0.000000 33.147579
RightShoulder -19.892467 -26.337758 -8.590263
RightArm 39.110018 -4.894186 32.698549
RightForeArm -42.274197 0.000000 108.504300
RightHand -7.277526 0.000000 -56.058163
RightHandThumb1 -24.326973 -0.000000 -32.862282
LeftUpLeg -3.492191 4.324651 -3.257534
LeftLeg 3.126622 -0.000000 -0.000000
LeftFoot -20.102127 27.676550 -15.372163
LeftToeBase -32.731522 -0.000000 0.000000
RightUpLeg -4.107815 6.400806 4.220241
RightLeg 6.921702 -0.000000 -0.000000
RightFoot -26.114759 -17.602006 19.191103
RightToeBase -32.200330 -0.000000 0.000000
946
root 17.236648 7.013923 -23.041197 -164.285472 89.709871 -253.846162
Spine -10.271605 0.498136 -0.740068
Head 29.299439 -0.929595 0.325321
LeftShoulder -19.561613 -8.576623 16.676082
LeftArm 29.279496 38.162724 -26.560872
LeftForeArm 22.881667 -0.000000 107.792271
LeftHand -2.752106 0.000000 61.375214
LeftHandThumb1 -26.253704 0.000000 33.147579
RightShoulder -19.750514 -26.261006 -8.712564
RightArm 39.314013 -5.019187 32.199951
RightForeArm -41.906064 -0.000000 108.090969
RightHand -7.270678 -0.000000 -56.583142
RightHandThumb1 -24.326973 -0.000000 -32.862282
LeftUpLeg -3.549553 4.250600 -3.226507
LeftLeg 3.151411 -0.000000 -0.000000
LeftFoot -20.115108 27.802697 -15.379459
LeftToeBase -32.469816 -0.000000 0.000000
RightUpLeg -4.115798 6.399024 4.265188
RightLeg 6.856983 -0.000000 -0.000000
RightFoot -26.136036 -17.638617 19.144444
RightToeBase -31.613097 -0.000000 0.000000
947
root 17.231750 7.062046 -23.038686 -155.745032 89.724854 -245.290802
Spine -10.362317 0.612725 -0.789448
Head 29.415636 -1.030963 0.452638
LeftShoulder -19.339268 -8.970416 16.891775
LeftArm 29.312981 38.557986 -26.605033
LeftForeArm 22.808279 -0.000000 107.471642
LeftHand -2.772586 -0.000000 61.556044
LeftHandThumb1 -26.253704 0.000000 33.147579
RightShoulder -19.655182 -26.127394 -8.760531
RightArm 39.362165 -5.135702 31.860855
RightForeArm -41.810750 -0.000000 107.698552
RightHand -7.406076 -0.000000 -56.951198
RightHandThumb1 -24.326973 -0.000000 -32.862282
LeftUpLeg -3.648163 4.309668 -3.204873
LeftLeg 3.201468 -0.000000 -0.000000
LeftFoot -20.162249 27.816659 -15.517093
LeftToeBase -31.862557 -0.000000 0.000000
RightUpLeg -4.154795 6.394574 4.305414
RightLeg 6.818929 -0.000000 -0.000000
RightFoot -26.152005 -17.672023 19.093670
RightToeBase -30.994503 -0.000000 0.000000
948
root 17.229716 7.107697 -23.036178 -140.994601 89.704469 -230.513668
Spine -10.466958 0.701326 -0.781833
Head 29.590841 -1.227452 0.480504
LeftShoulder -19.068924 -9.453489 17.074730
LeftArm 29.157892 39.004768 -26.752293
LeftForeArm 22.696756 -0.000000 107.197443
LeftHand -2.703994 0.000000 61.638955
LeftHandThumb1 -26.253704 0.000000 33.147579
RightShoulder -19.543025 -26.004041 -8.809580
RightArm 39.395951 -5.275312 31.389567
RightForeArm -41.480166 -0.000000 107.300916
RightHand -7.392797 -0.000000 -57.315130
RightHandThumb1 -24.326973 -0.000000 -32.862282
LeftUpLeg -3.691126 4.335474 -3.140095
LeftLeg 3.178796 -0.000000 -0.000000
LeftFoot -20.114061 27.736573 -15.651984
LeftToeBase -32.530251 -0.000000 0.000000
RightUpLeg -4.170475 6.247455 4.381623
RightLeg 6.714693 -0.000000 -0.000000
RightFoot -26.247690 -17.686909 19.447556
RightToeBase -34.086793 -0.000000 0.000000
